<svg width="300" height="100" viewBox="0 0 300 100" fill="none" xmlns="http://www.w3.org/2000/svg">
<path d="M68.7444 17.0127H90.7167L104.186 62.6536H104.391L113.629 17.0127H130.226L116.266 82.8272H94.3957L80.6197 37.2885H80.4357L71.2993 82.8272H54.7026L68.7444 17.0127Z" fill="#4F4F4F"/>
<path d="M136.705 17.0127H154.344L149.152 42.1939H170L175.192 17.0127H192.831L179.157 82.8272H161.416L167.261 54.6414H146.516L140.67 82.8272H123.051L136.705 17.0127Z" fill="#4F4F4F"/>
<path d="M239.209 31.913C234.688 29.8316 229.756 28.7976 224.779 28.888C217.809 28.888 212.148 29.9304 212.148 35.2037C212.148 44.5445 237.697 41.0494 237.697 61.039C237.697 79.23 220.814 83.9514 205.546 83.9514C198.607 83.7901 191.725 82.6478 185.106 80.5585L189.194 67.1708C192.689 69.4395 199.659 70.952 205.403 70.952C211.146 70.952 219.444 69.9096 219.444 63.1238C219.444 52.5567 193.895 56.5219 193.895 37.9426C193.895 20.978 208.796 15.8682 223.226 15.8682C231.401 15.8682 238.964 16.7266 243.399 18.791L239.209 31.913Z" fill="#4F4F4F"/>
</svg>
