<svg width="300" height="100" viewBox="0 0 300 100" fill="none" xmlns="http://www.w3.org/2000/svg">
<g clip-path="url(#clip0_1829_47222)">
<path d="M40.1479 74.1697C40.1479 74.1697 36.1198 62.1047 36.0419 61.8128C31.8581 59.108 26.5261 59.108 22.3423 61.8128C22.2645 62.0853 18.2363 74.1697 18.2363 74.1697C17.9834 74.9481 17.5163 75.5903 16.9131 76.0573L26.5456 68.9156C28.1218 67.748 30.2429 67.748 31.8386 68.9156L41.4712 76.0573C40.8679 75.5903 40.4009 74.9286 40.1479 74.1503V74.1697Z" fill="#4F4F4F"/>
<path d="M11.8737 69.54C11.8737 69.54 22.1094 61.9702 22.3429 61.8145C23.6078 56.9885 21.9732 51.9485 18.1202 48.796C17.8478 48.796 5.1017 48.6987 5.1017 48.6987C4.28439 48.6987 3.52547 48.4458 2.8833 48.0371L12.652 55.0037C14.2477 56.1518 14.9094 58.1561 14.2867 60.0243L10.4726 71.4081C10.745 70.6881 11.212 70.046 11.8737 69.5595V69.54Z" fill="#4F4F4F"/>
<path d="M18.2178 74.1713C18.2178 74.1713 22.2459 62.1063 22.3238 61.8145C22.0903 61.9701 11.8545 69.5399 11.8545 69.5399C11.1929 70.0264 10.7258 70.6686 10.4534 71.3886C9.03285 75.3389 13.5669 78.647 16.8945 76.0589C17.4783 75.5919 17.9648 74.9302 18.2178 74.1713Z" fill="#363636"/>
<path d="M18.1004 48.7942C23.0821 48.5217 27.3827 45.3887 29.173 40.7379C29.0757 40.4654 25.2421 28.3421 25.2421 28.3421C24.9891 27.5637 24.9891 26.7658 25.2032 26.0264L21.6032 37.4686C21.0194 39.3368 19.2875 40.6016 17.322 40.5822L5.31543 40.4654C6.07436 40.5043 6.83328 40.7379 7.49491 41.2243C7.49491 41.2243 17.8669 48.619 18.081 48.7942H18.1004Z" fill="#4F4F4F"/>
<path d="M18.1004 48.7961C17.8864 48.621 7.5144 41.2263 7.5144 41.2263C6.85277 40.7593 6.09384 40.5063 5.31546 40.4674C1.11217 40.3312 -0.619734 45.6631 2.86354 48.0372C3.50571 48.4459 4.26464 48.6988 5.08194 48.6988C5.08194 48.6988 17.8085 48.8156 18.1004 48.7961Z" fill="#363636"/>
<path d="M33.1237 28.3421C33.1237 28.3421 29.2902 40.4849 29.1929 40.7379C31.0026 45.3887 35.3032 48.5023 40.2654 48.7942C40.4795 48.619 50.8515 41.2243 50.8515 41.2243C51.5131 40.7573 52.272 40.5043 53.0309 40.4654L41.0438 40.5822C39.0784 40.5822 37.3659 39.3562 36.7627 37.4686L33.1626 26.0264C33.3572 26.7658 33.3572 27.5637 33.1237 28.3421Z" fill="#4F4F4F"/>
<path d="M25.2618 28.3441C25.2618 28.3441 29.0954 40.4869 29.1927 40.7399C29.2899 40.4675 33.1235 28.3441 33.1235 28.3441C33.3765 27.5657 33.3765 26.7679 33.1624 26.0284C31.9948 22.0003 26.3905 21.9808 25.2034 26.0284C25.0088 26.7679 25.0088 27.5657 25.2423 28.3441H25.2618Z" fill="#363636"/>
<path d="M45.714 54.9841L55.4828 48.0176C54.8406 48.4262 54.0817 48.6792 53.2644 48.6987C53.2644 48.6987 40.5378 48.796 40.2459 48.796C36.3929 51.9484 34.7388 57.0079 36.0037 61.8145C36.2372 61.9701 46.473 69.5399 46.473 69.5399C47.1346 70.0264 47.6016 70.6686 47.8741 71.3886L44.06 60.0242C43.4373 58.1561 44.0989 56.1323 45.6946 55.0036L45.714 54.9841Z" fill="#4F4F4F"/>
<path d="M46.5123 69.5399C46.5123 69.5399 36.2765 61.9701 36.043 61.8145C36.1208 62.0869 40.149 74.1713 40.149 74.1713C40.4019 74.9497 40.8884 75.5919 41.4722 76.0784C44.7803 78.647 49.3339 75.3584 47.9134 71.4081C47.6409 70.688 47.1739 70.0459 46.5123 69.5594V69.5399Z" fill="#363636"/>
<path d="M40.2646 48.7951C40.5371 48.7951 53.2832 48.6978 53.2832 48.6978C54.1005 48.6978 54.8594 48.4448 55.5015 48.0167C58.9848 45.6621 57.2529 40.3107 53.0496 40.4469C52.2907 40.4858 51.5318 40.7388 50.8702 41.2058C50.8702 41.2058 40.5176 48.6005 40.2841 48.7756L40.2646 48.7951Z" fill="#363636"/>
<path d="M67.6166 47.5049V32.8935H69.6269L78.1036 43.8572H77.5647V32.8935H80.0518V47.5049H78.0414L69.5855 36.5412H70.1036V47.5049H67.6166ZM87.7799 47.7121C86.7022 47.7121 85.7695 47.4911 84.982 47.0489C84.1944 46.6068 83.5795 45.9781 83.1374 45.1629C82.7091 44.3477 82.4949 43.3805 82.4949 42.2614C82.4949 41.1422 82.7091 40.1819 83.1374 39.3806C83.5795 38.5654 84.1944 37.9367 84.982 37.4946C85.7695 37.0524 86.7022 36.8313 87.7799 36.8313C88.8576 36.8313 89.7902 37.0524 90.5778 37.4946C91.3792 37.9367 91.994 38.5654 92.4223 39.3806C92.8645 40.1819 93.0856 41.1422 93.0856 42.2614C93.0856 43.3805 92.8645 44.3477 92.4223 45.1629C91.994 45.9781 91.3792 46.6068 90.5778 47.0489C89.7902 47.4911 88.8576 47.7121 87.7799 47.7121ZM87.7799 45.7225C88.5951 45.7225 89.2445 45.4393 89.7281 44.8728C90.2116 44.2925 90.4534 43.422 90.4534 42.2614C90.4534 41.1008 90.2116 40.2372 89.7281 39.6707C89.2445 39.1042 88.5951 38.821 87.7799 38.821C86.9647 38.821 86.3153 39.1042 85.8317 39.6707C85.3481 40.2372 85.1063 41.1008 85.1063 42.2614C85.1063 43.422 85.3481 44.2925 85.8317 44.8728C86.3153 45.4393 86.9647 45.7225 87.7799 45.7225ZM95.299 47.5049V39.7122C95.299 39.27 95.2851 38.821 95.2575 38.365C95.2437 37.9091 95.2091 37.4669 95.1539 37.0386H97.6616L97.9518 39.8987H97.5373C97.6755 39.2078 97.9034 38.6344 98.2212 38.1785C98.5528 37.7225 98.9535 37.384 99.4233 37.163C99.8931 36.9419 100.404 36.8313 100.957 36.8313C101.206 36.8313 101.406 36.8452 101.558 36.8728C101.71 36.8866 101.862 36.9212 102.014 36.9764L101.993 39.2562C101.731 39.1457 101.503 39.0766 101.309 39.049C101.13 39.0213 100.902 39.0075 100.625 39.0075C100.031 39.0075 99.5269 39.1319 99.1124 39.3806C98.7117 39.6293 98.4078 39.9747 98.2005 40.4168C98.0071 40.859 97.9103 41.3633 97.9103 41.9298V47.5049H95.299ZM108.52 47.7121C107.276 47.7121 106.337 47.3874 105.701 46.738C105.065 46.0887 104.748 45.1146 104.748 43.8158V38.9868H102.737V37.0386H104.748V34.365L107.338 33.7018V37.0386H110.136V38.9868H107.338V43.65C107.338 44.3685 107.476 44.8728 107.753 45.1629C108.029 45.4531 108.409 45.5982 108.893 45.5982C109.155 45.5982 109.376 45.5774 109.556 45.536C109.749 45.4945 109.936 45.4393 110.115 45.3702V47.422C109.881 47.5187 109.618 47.5878 109.328 47.6292C109.052 47.6845 108.782 47.7121 108.52 47.7121ZM111.896 47.5049V32.251H114.487V39.1319H114.196C114.514 38.3857 115.005 37.8193 115.668 37.4324C116.331 37.0317 117.091 36.8313 117.948 36.8313C119.191 36.8313 120.117 37.1837 120.725 37.8883C121.333 38.5792 121.637 39.6362 121.637 41.0593V47.5049H119.046V41.1837C119.046 40.3685 118.887 39.7812 118.569 39.422C118.265 39.049 117.775 38.8624 117.098 38.8624C116.31 38.8624 115.675 39.1111 115.191 39.6085C114.721 40.0921 114.487 40.7415 114.487 41.5567V47.5049H111.896ZM137.076 47.7121C135.556 47.7121 134.251 47.4082 133.159 46.8002C132.081 46.1785 131.252 45.308 130.672 44.1888C130.092 43.0558 129.802 41.7225 129.802 40.1888C129.802 38.6552 130.092 37.3288 130.672 36.2096C131.252 35.0904 132.081 34.2269 133.159 33.6189C134.251 32.9972 135.556 32.6863 137.076 32.6863C138.099 32.6863 139.017 32.8314 139.833 33.1215C140.662 33.4117 141.373 33.84 141.967 34.4065L141.097 36.5205C140.447 35.9954 139.819 35.6224 139.211 35.4013C138.617 35.1664 137.933 35.049 137.159 35.049C135.681 35.049 134.548 35.498 133.76 36.3961C132.986 37.2804 132.6 38.5446 132.6 40.1888C132.6 41.8331 132.986 43.1042 133.76 44.0023C134.548 44.9004 135.681 45.3494 137.159 45.3494C137.933 45.3494 138.617 45.2389 139.211 45.0178C139.819 44.783 140.447 44.3961 141.097 43.8572L141.967 45.9712C141.373 46.5239 140.662 46.9522 139.833 47.2562C139.017 47.5602 138.099 47.7121 137.076 47.7121ZM148.587 47.7121C146.833 47.7121 145.458 47.2285 144.463 46.2614C143.468 45.2942 142.971 43.9678 142.971 42.2821C142.971 41.1906 143.185 40.2372 143.613 39.422C144.042 38.6068 144.636 37.9712 145.396 37.5153C146.169 37.0593 147.067 36.8313 148.09 36.8313C149.099 36.8313 149.941 37.0455 150.618 37.4738C151.295 37.9022 151.807 38.5032 152.152 39.2769C152.511 40.0507 152.691 40.9557 152.691 41.9919V42.6759H145.064V41.308H150.846L150.494 41.5982C150.494 40.631 150.287 39.8918 149.872 39.3806C149.472 38.8693 148.884 38.6137 148.111 38.6137C147.254 38.6137 146.591 38.9177 146.121 39.5256C145.665 40.1336 145.437 40.9833 145.437 42.0748V42.3443C145.437 43.4773 145.713 44.327 146.266 44.8935C146.833 45.4462 147.627 45.7225 148.649 45.7225C149.244 45.7225 149.796 45.6465 150.308 45.4945C150.833 45.3287 151.33 45.0662 151.8 44.707L152.567 46.4479C152.069 46.8486 151.475 47.1595 150.784 47.3805C150.093 47.6016 149.361 47.7121 148.587 47.7121ZM154.885 47.5049V39.65C154.885 39.2217 154.871 38.7864 154.843 38.3443C154.816 37.9022 154.774 37.4669 154.719 37.0386H157.227L157.434 39.1111H157.185C157.517 38.3788 158.007 37.8193 158.657 37.4324C159.306 37.0317 160.059 36.8313 160.916 36.8313C162.145 36.8313 163.071 37.1768 163.693 37.8676C164.315 38.5585 164.626 39.6362 164.626 41.1008V47.5049H162.035V41.2251C162.035 40.3823 161.869 39.7812 161.538 39.422C161.22 39.049 160.736 38.8624 160.087 38.8624C159.285 38.8624 158.65 39.1111 158.18 39.6085C157.71 40.1059 157.475 40.7692 157.475 41.5982V47.5049H154.885ZM171.849 47.7121C170.606 47.7121 169.666 47.3874 169.031 46.738C168.395 46.0887 168.077 45.1146 168.077 43.8158V38.9868H166.067V37.0386H168.077V34.365L170.668 33.7018V37.0386H173.466V38.9868H170.668V43.65C170.668 44.3685 170.806 44.8728 171.082 45.1629C171.359 45.4531 171.739 45.5982 172.222 45.5982C172.485 45.5982 172.706 45.5774 172.885 45.536C173.079 45.4945 173.265 45.4393 173.445 45.3702V47.422C173.21 47.5187 172.948 47.5878 172.657 47.6292C172.381 47.6845 172.112 47.7121 171.849 47.7121ZM175.205 47.5049V39.7122C175.205 39.27 175.191 38.821 175.163 38.365C175.149 37.9091 175.115 37.4669 175.06 37.0386H177.567L177.858 39.8987H177.443C177.581 39.2078 177.809 38.6344 178.127 38.1785C178.459 37.7225 178.859 37.384 179.329 37.163C179.799 36.9419 180.31 36.8313 180.863 36.8313C181.111 36.8313 181.312 36.8452 181.464 36.8728C181.616 36.8866 181.768 36.9212 181.92 36.9764L181.899 39.2562C181.637 39.1457 181.409 39.0766 181.215 39.049C181.035 39.0213 180.808 39.0075 180.531 39.0075C179.937 39.0075 179.433 39.1319 179.018 39.3806C178.618 39.6293 178.314 39.9747 178.106 40.4168C177.913 40.859 177.816 41.3633 177.816 41.9298V47.5049H175.205ZM187.302 47.7121C186.39 47.7121 185.589 47.498 184.898 47.0697C184.207 46.6275 183.668 45.9988 183.281 45.1836C182.894 44.3685 182.701 43.3944 182.701 42.2614C182.701 41.1284 182.894 40.1612 183.281 39.3598C183.668 38.5446 184.207 37.9229 184.898 37.4946C185.589 37.0524 186.39 36.8313 187.302 36.8313C188.186 36.8313 188.96 37.0524 189.623 37.4946C190.3 37.9229 190.749 38.5032 190.97 39.2355H190.742L190.97 37.0386H193.457C193.416 37.4669 193.375 37.9022 193.333 38.3443C193.305 38.7864 193.292 39.2217 193.292 39.65V47.5049H190.722L190.701 45.3494H190.95C190.729 46.0679 190.28 46.6413 189.603 47.0697C188.926 47.498 188.159 47.7121 187.302 47.7121ZM188.027 45.7225C188.843 45.7225 189.499 45.4393 189.996 44.8728C190.494 44.2925 190.742 43.422 190.742 42.2614C190.742 41.1008 190.494 40.2372 189.996 39.6707C189.499 39.1042 188.843 38.821 188.027 38.821C187.212 38.821 186.556 39.1042 186.059 39.6707C185.561 40.2372 185.312 41.1008 185.312 42.2614C185.312 43.422 185.554 44.2925 186.038 44.8728C186.535 45.4393 187.198 45.7225 188.027 45.7225ZM196.113 47.5049V32.251H198.703V47.5049H196.113ZM207.411 47.5049V32.8935H210.085V45.2458H216.966V47.5049H207.411ZM223.425 47.7121C222.348 47.7121 221.415 47.4911 220.628 47.0489C219.84 46.6068 219.225 45.9781 218.783 45.1629C218.355 44.3477 218.14 43.3805 218.14 42.2614C218.14 41.1422 218.355 40.1819 218.783 39.3806C219.225 38.5654 219.84 37.9367 220.628 37.4946C221.415 37.0524 222.348 36.8313 223.425 36.8313C224.503 36.8313 225.436 37.0524 226.223 37.4946C227.025 37.9367 227.64 38.5654 228.068 39.3806C228.51 40.1819 228.731 41.1422 228.731 42.2614C228.731 43.3805 228.51 44.3477 228.068 45.1629C227.64 45.9781 227.025 46.6068 226.223 47.0489C225.436 47.4911 224.503 47.7121 223.425 47.7121ZM223.425 45.7225C224.241 45.7225 224.89 45.4393 225.374 44.8728C225.857 44.2925 226.099 43.422 226.099 42.2614C226.099 41.1008 225.857 40.2372 225.374 39.6707C224.89 39.1042 224.241 38.821 223.425 38.821C222.61 38.821 221.961 39.1042 221.477 39.6707C220.994 40.2372 220.752 41.1008 220.752 42.2614C220.752 43.422 220.994 44.2925 221.477 44.8728C221.961 45.4393 222.61 45.7225 223.425 45.7225ZM230.965 47.5049V39.65C230.965 39.2217 230.951 38.7864 230.924 38.3443C230.896 37.9022 230.855 37.4669 230.799 37.0386H233.307L233.514 39.1111H233.266C233.597 38.3788 234.088 37.8193 234.737 37.4324C235.387 37.0317 236.14 36.8313 236.996 36.8313C238.226 36.8313 239.152 37.1768 239.774 37.8676C240.395 38.5585 240.706 39.6362 240.706 41.1008V47.5049H238.115V41.2251C238.115 40.3823 237.95 39.7812 237.618 39.422C237.3 39.049 236.817 38.8624 236.167 38.8624C235.366 38.8624 234.73 39.1111 234.261 39.6085C233.791 40.1059 233.556 40.7692 233.556 41.5982V47.5049H230.965ZM247.515 47.7121C246.603 47.7121 245.795 47.498 245.09 47.0697C244.4 46.6275 243.861 45.9988 243.474 45.1836C243.087 44.3685 242.893 43.3944 242.893 42.2614C242.893 41.1284 243.087 40.1612 243.474 39.3598C243.861 38.5446 244.4 37.9229 245.09 37.4946C245.795 37.0524 246.603 36.8313 247.515 36.8313C248.386 36.8313 249.153 37.0455 249.816 37.4738C250.493 37.8883 250.942 38.4548 251.163 39.1733H250.893V32.251H253.484V47.5049H250.935V45.2873H251.184C250.963 46.0334 250.513 46.6275 249.836 47.0697C249.173 47.498 248.4 47.7121 247.515 47.7121ZM248.241 45.7225C249.056 45.7225 249.712 45.4393 250.21 44.8728C250.707 44.2925 250.956 43.422 250.956 42.2614C250.956 41.1008 250.707 40.2372 250.21 39.6707C249.712 39.1042 249.056 38.821 248.241 38.821C247.425 38.821 246.762 39.1042 246.251 39.6707C245.754 40.2372 245.505 41.1008 245.505 42.2614C245.505 43.422 245.754 44.2925 246.251 44.8728C246.762 45.4393 247.425 45.7225 248.241 45.7225ZM261.031 47.7121C259.953 47.7121 259.02 47.4911 258.233 47.0489C257.445 46.6068 256.83 45.9781 256.388 45.1629C255.96 44.3477 255.746 43.3805 255.746 42.2614C255.746 41.1422 255.96 40.1819 256.388 39.3806C256.83 38.5654 257.445 37.9367 258.233 37.4946C259.02 37.0524 259.953 36.8313 261.031 36.8313C262.108 36.8313 263.041 37.0524 263.828 37.4946C264.63 37.9367 265.245 38.5654 265.673 39.3806C266.115 40.1819 266.336 41.1422 266.336 42.2614C266.336 43.3805 266.115 44.3477 265.673 45.1629C265.245 45.9781 264.63 46.6068 263.828 47.0489C263.041 47.4911 262.108 47.7121 261.031 47.7121ZM261.031 45.7225C261.846 45.7225 262.495 45.4393 262.979 44.8728C263.462 44.2925 263.704 43.422 263.704 42.2614C263.704 41.1008 263.462 40.2372 262.979 39.6707C262.495 39.1042 261.846 38.821 261.031 38.821C260.215 38.821 259.566 39.1042 259.082 39.6707C258.599 40.2372 258.357 41.1008 258.357 42.2614C258.357 43.422 258.599 44.2925 259.082 44.8728C259.566 45.4393 260.215 45.7225 261.031 45.7225ZM268.57 47.5049V39.65C268.57 39.2217 268.557 38.7864 268.529 38.3443C268.501 37.9022 268.46 37.4669 268.405 37.0386H270.912L271.12 39.1111H270.871C271.202 38.3788 271.693 37.8193 272.342 37.4324C272.992 37.0317 273.745 36.8313 274.601 36.8313C275.831 36.8313 276.757 37.1768 277.379 37.8676C278 38.5585 278.311 39.6362 278.311 41.1008V47.5049H275.721V41.2251C275.721 40.3823 275.555 39.7812 275.223 39.422C274.905 39.049 274.422 38.8624 273.772 38.8624C272.971 38.8624 272.335 39.1111 271.866 39.6085C271.396 40.1059 271.161 40.7692 271.161 41.5982V47.5049H268.57ZM67.6166 69.5049V54.8935H70.2901V69.5049H67.6166ZM73.299 69.5049V61.65C73.299 61.2217 73.2852 60.7864 73.2576 60.3443C73.23 59.9022 73.1885 59.4669 73.1332 59.0386H75.641L75.8482 61.1111H75.5995C75.9312 60.3788 76.4216 59.8193 77.071 59.4324C77.7204 59.0317 78.4735 58.8313 79.3301 58.8313C80.5598 58.8313 81.4855 59.1768 82.1073 59.8676C82.7291 60.5585 83.0399 61.6362 83.0399 63.1008V69.5049H80.4493V63.2251C80.4493 62.3823 80.2835 61.7812 79.9519 61.422C79.6341 61.049 79.1505 60.8624 78.5011 60.8624C77.6997 60.8624 77.0641 61.1111 76.5944 61.6085C76.1246 62.1059 75.8897 62.7692 75.8897 63.5982V69.5049H73.299ZM90.2635 69.7121C89.02 69.7121 88.0804 69.3874 87.4449 68.738C86.8093 68.0887 86.4915 67.1146 86.4915 65.8158V60.9868H84.4812V59.0386H86.4915V56.365L89.0822 55.7018V59.0386H91.8801V60.9868H89.0822V65.65C89.0822 66.3685 89.2203 66.8728 89.4967 67.1629C89.773 67.4531 90.153 67.5982 90.6366 67.5982C90.8991 67.5982 91.1202 67.5774 91.2998 67.536C91.4932 67.4945 91.6797 67.4393 91.8594 67.3702V69.422C91.6245 69.5187 91.362 69.5878 91.0718 69.6292C90.7955 69.6845 90.526 69.7121 90.2635 69.7121ZM98.5956 69.7121C96.8408 69.7121 95.4661 69.2285 94.4712 68.2614C93.4764 67.2942 92.979 65.9678 92.979 64.2821C92.979 63.1906 93.1932 62.2372 93.6215 61.422C94.0498 60.6068 94.644 59.9712 95.4039 59.5153C96.1776 59.0593 97.0757 58.8313 98.0982 58.8313C99.1068 58.8313 99.9496 59.0455 100.627 59.4738C101.304 59.9022 101.815 60.5032 102.16 61.2769C102.52 62.0507 102.699 62.9557 102.699 63.9919V64.6759H95.0723V63.308H100.855L100.502 63.5982C100.502 62.631 100.295 61.8918 99.8805 61.3806C99.4799 60.8693 98.8926 60.6137 98.1189 60.6137C97.2623 60.6137 96.599 60.9177 96.1293 61.5256C95.6733 62.1336 95.4453 62.9833 95.4453 64.0748V64.3443C95.4453 65.4773 95.7217 66.327 96.2743 66.8935C96.8408 67.4462 97.6353 67.7225 98.6578 67.7225C99.2519 67.7225 99.8046 67.6465 100.316 67.4945C100.841 67.3287 101.338 67.0662 101.808 66.707L102.575 68.4479C102.077 68.8486 101.483 69.1595 100.792 69.3805C100.102 69.6016 99.3693 69.7121 98.5956 69.7121ZM109.743 74.1474C108.776 74.1474 107.898 74.0437 107.111 73.8365C106.337 73.6292 105.646 73.3114 105.038 72.8831L105.598 71.0178C105.998 71.2804 106.413 71.4945 106.841 71.6603C107.27 71.8261 107.712 71.9505 108.168 72.0334C108.624 72.1163 109.086 72.1577 109.556 72.1577C110.523 72.1577 111.242 71.9159 111.712 71.4323C112.195 70.9626 112.437 70.2855 112.437 69.4013V66.8935H112.644C112.423 67.612 111.974 68.1854 111.297 68.6137C110.634 69.042 109.867 69.2562 108.997 69.2562C108.057 69.2562 107.235 69.0489 106.53 68.6344C105.839 68.2061 105.301 67.5982 104.914 66.8106C104.527 66.023 104.333 65.0973 104.333 64.0334C104.333 62.9695 104.527 62.0507 104.914 61.2769C105.301 60.4894 105.839 59.8883 106.53 59.4738C107.235 59.0455 108.057 58.8313 108.997 58.8313C109.881 58.8313 110.648 59.0455 111.297 59.4738C111.96 59.8883 112.402 60.4548 112.624 61.1733L112.437 61.049L112.644 59.0386H115.152C115.097 59.4669 115.055 59.9022 115.028 60.3443C115 60.7864 114.986 61.2217 114.986 61.65V69.0904C114.986 70.7346 114.537 71.985 113.639 72.8417C112.755 73.7121 111.456 74.1474 109.743 74.1474ZM109.701 67.2665C110.53 67.2665 111.187 66.9902 111.67 66.4375C112.168 65.871 112.416 65.0697 112.416 64.0334C112.416 62.9971 112.168 62.2027 111.67 61.65C111.187 61.0973 110.53 60.821 109.701 60.821C108.858 60.821 108.188 61.0973 107.691 61.65C107.194 62.2027 106.945 62.9971 106.945 64.0334C106.945 65.0697 107.194 65.871 107.691 66.4375C108.188 66.9902 108.858 67.2665 109.701 67.2665ZM117.765 69.5049V61.7122C117.765 61.27 117.751 60.821 117.723 60.365C117.71 59.9091 117.675 59.4669 117.62 59.0386H120.128L120.418 61.8987H120.003C120.141 61.2078 120.369 60.6344 120.687 60.1785C121.019 59.7225 121.419 59.384 121.889 59.163C122.359 58.9419 122.87 58.8313 123.423 58.8313C123.672 58.8313 123.872 58.8452 124.024 58.8728C124.176 58.8866 124.328 58.9212 124.48 58.9764L124.459 61.2562C124.197 61.1457 123.969 61.0766 123.775 61.049C123.596 61.0213 123.368 61.0075 123.091 61.0075C122.497 61.0075 121.993 61.1319 121.578 61.3806C121.178 61.6293 120.874 61.9747 120.666 62.4168C120.473 62.859 120.376 63.3633 120.376 63.9298V69.5049H117.765ZM129.862 69.7121C128.95 69.7121 128.149 69.498 127.458 69.0697C126.767 68.6275 126.228 67.9988 125.841 67.1836C125.455 66.3685 125.261 65.3944 125.261 64.2614C125.261 63.1284 125.455 62.1612 125.841 61.3598C126.228 60.5446 126.767 59.9229 127.458 59.4946C128.149 59.0524 128.95 58.8313 129.862 58.8313C130.746 58.8313 131.52 59.0524 132.183 59.4946C132.86 59.9229 133.309 60.5032 133.531 61.2355H133.303L133.531 59.0386H136.018C135.976 59.4669 135.935 59.9022 135.893 60.3443C135.866 60.7864 135.852 61.2217 135.852 61.65V69.5049H133.282L133.261 67.3494H133.51C133.289 68.0679 132.84 68.6413 132.163 69.0697C131.486 69.498 130.719 69.7121 129.862 69.7121ZM130.588 67.7225C131.403 67.7225 132.059 67.4393 132.556 66.8728C133.054 66.2925 133.303 65.422 133.303 64.2614C133.303 63.1008 133.054 62.2372 132.556 61.6707C132.059 61.1042 131.403 60.821 130.588 60.821C129.772 60.821 129.116 61.1042 128.619 61.6707C128.121 62.2372 127.873 63.1008 127.873 64.2614C127.873 65.422 128.114 66.2925 128.598 66.8728C129.095 67.4393 129.759 67.7225 130.588 67.7225ZM143.15 69.7121C141.906 69.7121 140.966 69.3874 140.331 68.738C139.695 68.0887 139.377 67.1146 139.377 65.8158V60.9868H137.367V59.0386H139.377V56.365L141.968 55.7018V59.0386H144.766V60.9868H141.968V65.65C141.968 66.3685 142.106 66.8728 142.383 67.1629C142.659 67.4531 143.039 67.5982 143.523 67.5982C143.785 67.5982 144.006 67.5774 144.186 67.536C144.379 67.4945 144.566 67.4393 144.745 67.3702V69.422C144.51 69.5187 144.248 69.5878 143.958 69.6292C143.681 69.6845 143.412 69.7121 143.15 69.7121ZM151.482 69.7121C149.727 69.7121 148.352 69.2285 147.357 68.2614C146.362 67.2942 145.865 65.9678 145.865 64.2821C145.865 63.1906 146.079 62.2372 146.507 61.422C146.936 60.6068 147.53 59.9712 148.29 59.5153C149.064 59.0593 149.962 58.8313 150.984 58.8313C151.993 58.8313 152.836 59.0455 153.513 59.4738C154.19 59.9022 154.701 60.5032 155.046 61.2769C155.406 62.0507 155.585 62.9557 155.585 63.9919V64.6759H147.958V63.308H153.741L153.388 63.5982C153.388 62.631 153.181 61.8918 152.767 61.3806C152.366 60.8693 151.779 60.6137 151.005 60.6137C150.148 60.6137 149.485 60.9177 149.015 61.5256C148.559 62.1336 148.331 62.9833 148.331 64.0748V64.3443C148.331 65.4773 148.608 66.327 149.16 66.8935C149.727 67.4462 150.521 67.7225 151.544 67.7225C152.138 67.7225 152.691 67.6465 153.202 67.4945C153.727 67.3287 154.224 67.0662 154.694 66.707L155.461 68.4479C154.963 68.8486 154.369 69.1595 153.678 69.3805C152.988 69.6016 152.255 69.7121 151.482 69.7121ZM161.841 69.7121C160.929 69.7121 160.121 69.498 159.416 69.0697C158.725 68.6275 158.187 67.9988 157.8 67.1836C157.413 66.3685 157.219 65.3944 157.219 64.2614C157.219 63.1284 157.413 62.1612 157.8 61.3598C158.187 60.5446 158.725 59.9229 159.416 59.4946C160.121 59.0524 160.929 58.8313 161.841 58.8313C162.712 58.8313 163.478 59.0455 164.142 59.4738C164.819 59.8883 165.268 60.4548 165.489 61.1733H165.219V54.251H167.81V69.5049H165.261V67.2873H165.51C165.288 68.0334 164.839 68.6275 164.162 69.0697C163.499 69.498 162.725 69.7121 161.841 69.7121ZM162.567 67.7225C163.382 67.7225 164.038 67.4393 164.535 66.8728C165.033 66.2925 165.282 65.422 165.282 64.2614C165.282 63.1008 165.033 62.2372 164.535 61.6707C164.038 61.1042 163.382 60.821 162.567 60.821C161.751 60.821 161.088 61.1042 160.577 61.6707C160.079 62.2372 159.831 63.1008 159.831 64.2614C159.831 65.422 160.079 66.2925 160.577 66.8728C161.088 67.4393 161.751 67.7225 162.567 67.7225ZM183.324 69.7121C181.804 69.7121 180.498 69.4082 179.406 68.8002C178.329 68.1785 177.5 67.308 176.919 66.1888C176.339 65.0558 176.049 63.7225 176.049 62.1888C176.049 60.6552 176.339 59.3288 176.919 58.2096C177.5 57.0904 178.329 56.2269 179.406 55.6189C180.498 54.9972 181.804 54.6863 183.324 54.6863C184.346 54.6863 185.265 54.8314 186.08 55.1215C186.909 55.4117 187.621 55.84 188.215 56.4065L187.344 58.5205C186.695 57.9954 186.066 57.6224 185.458 57.4013C184.864 57.1664 184.18 57.049 183.406 57.049C181.928 57.049 180.795 57.498 180.008 58.3961C179.234 59.2804 178.847 60.5446 178.847 62.1888C178.847 63.8331 179.234 65.1042 180.008 66.0023C180.795 66.9004 181.928 67.3494 183.406 67.3494C184.18 67.3494 184.864 67.2389 185.458 67.0178C186.066 66.783 186.695 66.3961 187.344 65.8572L188.215 67.9712C187.621 68.5239 186.909 68.9522 186.08 69.2562C185.265 69.5602 184.346 69.7121 183.324 69.7121ZM194.183 69.7121C193.272 69.7121 192.47 69.498 191.779 69.0697C191.089 68.6275 190.55 67.9988 190.163 67.1836C189.776 66.3685 189.582 65.3944 189.582 64.2614C189.582 63.1284 189.776 62.1612 190.163 61.3598C190.55 60.5446 191.089 59.9229 191.779 59.4946C192.47 59.0524 193.272 58.8313 194.183 58.8313C195.068 58.8313 195.842 59.0524 196.505 59.4946C197.182 59.9229 197.631 60.5032 197.852 61.2355H197.624L197.852 59.0386H200.339C200.297 59.4669 200.256 59.9022 200.215 60.3443C200.187 60.7864 200.173 61.2217 200.173 61.65V69.5049H197.603L197.582 67.3494H197.831C197.61 68.0679 197.161 68.6413 196.484 69.0697C195.807 69.498 195.04 69.7121 194.183 69.7121ZM194.909 67.7225C195.724 67.7225 196.38 67.4393 196.878 66.8728C197.375 66.2925 197.624 65.422 197.624 64.2614C197.624 63.1008 197.375 62.2372 196.878 61.6707C196.38 61.1042 195.724 60.821 194.909 60.821C194.094 60.821 193.437 61.1042 192.94 61.6707C192.443 62.2372 192.194 63.1008 192.194 64.2614C192.194 65.422 192.436 66.2925 192.919 66.8728C193.417 67.4393 194.08 67.7225 194.909 67.7225ZM202.973 69.5049V61.7122C202.973 61.27 202.96 60.821 202.932 60.365C202.918 59.9091 202.884 59.4669 202.828 59.0386H205.336L205.626 61.8987H205.212C205.35 61.2078 205.578 60.6344 205.896 60.1785C206.227 59.7225 206.628 59.384 207.098 59.163C207.568 58.9419 208.079 58.8313 208.631 58.8313C208.88 58.8313 209.081 58.8452 209.232 58.8728C209.384 58.8866 209.536 58.9212 209.688 58.9764L209.668 61.2562C209.405 61.1457 209.177 61.0766 208.984 61.049C208.804 61.0213 208.576 61.0075 208.3 61.0075C207.706 61.0075 207.201 61.1319 206.787 61.3806C206.386 61.6293 206.082 61.9747 205.875 62.4168C205.682 62.859 205.585 63.3633 205.585 63.9298V69.5049H202.973ZM216.026 69.7121C214.271 69.7121 212.896 69.2285 211.901 68.2614C210.906 67.2942 210.409 65.9678 210.409 64.2821C210.409 63.1906 210.623 62.2372 211.051 61.422C211.48 60.6068 212.074 59.9712 212.834 59.5153C213.608 59.0593 214.506 58.8313 215.528 58.8313C216.537 58.8313 217.38 59.0455 218.057 59.4738C218.734 59.9022 219.245 60.5032 219.59 61.2769C219.95 62.0507 220.129 62.9557 220.129 63.9919V64.6759H212.502V63.308H218.285L217.932 63.5982C217.932 62.631 217.725 61.8918 217.311 61.3806C216.91 60.8693 216.323 60.6137 215.549 60.6137C214.692 60.6137 214.029 60.9177 213.559 61.5256C213.103 62.1336 212.875 62.9833 212.875 64.0748V64.3443C212.875 65.4773 213.152 66.327 213.704 66.8935C214.271 67.4462 215.065 67.7225 216.088 67.7225C216.682 67.7225 217.235 67.6465 217.746 67.4945C218.271 67.3287 218.768 67.0662 219.238 66.707L220.005 68.4479C219.507 68.8486 218.913 69.1595 218.222 69.3805C217.532 69.6016 216.799 69.7121 216.026 69.7121ZM233.316 69.7121C232.142 69.7121 231.057 69.5671 230.062 69.2769C229.081 68.9729 228.238 68.5584 227.534 68.0334L228.363 65.9401C228.832 66.2717 229.323 66.555 229.834 66.7899C230.345 67.0109 230.891 67.1836 231.471 67.308C232.052 67.4185 232.667 67.4738 233.316 67.4738C234.407 67.4738 235.195 67.2942 235.679 66.9349C236.162 66.5757 236.404 66.1059 236.404 65.5256C236.404 65.0144 236.238 64.6275 235.907 64.365C235.575 64.0887 234.981 63.8607 234.124 63.6811L231.782 63.2044C230.442 62.928 229.44 62.4652 228.777 61.8158C228.114 61.1664 227.782 60.2959 227.782 59.2044C227.782 58.2925 228.024 57.498 228.508 56.821C228.991 56.144 229.668 55.6189 230.539 55.2459C231.409 54.8728 232.425 54.6863 233.585 54.6863C234.622 54.6863 235.582 54.8383 236.466 55.1422C237.35 55.4324 238.09 55.8538 238.684 56.4065L237.855 58.3961C237.261 57.8987 236.611 57.5326 235.907 57.2977C235.202 57.049 234.414 56.9246 233.544 56.9246C232.563 56.9246 231.796 57.1181 231.243 57.5049C230.705 57.878 230.435 58.3961 230.435 59.0593C230.435 59.5705 230.601 59.9781 230.933 60.2821C231.278 60.5861 231.858 60.821 232.673 60.9868L234.995 61.4427C236.376 61.7191 237.399 62.175 238.062 62.8106C238.725 63.4324 239.057 64.2752 239.057 65.3391C239.057 66.2096 238.822 66.9764 238.352 67.6396C237.882 68.289 237.219 68.8002 236.363 69.1733C235.506 69.5325 234.49 69.7121 233.316 69.7121ZM240.999 74.2095L240.398 72.1577C241.048 72.0196 241.593 71.8607 242.035 71.681C242.478 71.5014 242.844 71.2665 243.134 70.9764C243.424 70.6862 243.666 70.3132 243.859 69.8572L244.377 68.6344L244.315 69.65L239.756 59.0386H242.512L245.787 67.2044H245.186L248.481 59.0386H251.092L246.326 70.0852C246.008 70.8313 245.662 71.4462 245.289 71.9297C244.916 72.4272 244.516 72.8209 244.087 73.1111C243.659 73.4151 243.189 73.6499 242.678 73.8157C242.167 73.9816 241.607 74.1128 240.999 74.2095ZM255.988 69.7121C255.09 69.7121 254.261 69.6085 253.501 69.4013C252.755 69.1802 252.126 68.8762 251.615 68.4893L252.34 66.7484C252.865 67.1077 253.446 67.384 254.081 67.5774C254.717 67.7709 255.359 67.8676 256.009 67.8676C256.699 67.8676 257.211 67.7501 257.542 67.5153C257.888 67.2804 258.06 66.9626 258.06 66.5619C258.06 66.2441 257.95 65.9954 257.729 65.8158C257.521 65.6223 257.183 65.4773 256.713 65.3805L254.641 64.9868C253.756 64.7933 253.079 64.4617 252.61 63.9919C252.154 63.5222 251.926 62.9073 251.926 62.1474C251.926 61.498 252.098 60.9246 252.444 60.4272C252.803 59.9298 253.307 59.5429 253.957 59.2666C254.62 58.9764 255.394 58.8313 256.278 58.8313C257.052 58.8313 257.777 58.935 258.454 59.1422C259.145 59.3495 259.725 59.6604 260.195 60.0749L259.449 61.7536C259.021 61.4082 258.53 61.1388 257.977 60.9453C257.425 60.7519 256.886 60.6552 256.361 60.6552C255.642 60.6552 255.117 60.7864 254.786 61.049C254.454 61.2977 254.288 61.6224 254.288 62.023C254.288 62.327 254.385 62.5826 254.579 62.7899C254.786 62.9833 255.104 63.1284 255.532 63.2251L257.604 63.6189C258.53 63.7985 259.228 64.1163 259.698 64.5723C260.181 65.0144 260.423 65.6223 260.423 66.3961C260.423 67.0869 260.237 67.6811 259.863 68.1785C259.49 68.6759 258.972 69.0558 258.309 69.3184C257.646 69.5809 256.872 69.7121 255.988 69.7121ZM267.016 69.7121C265.772 69.7121 264.833 69.3874 264.197 68.738C263.561 68.0887 263.244 67.1146 263.244 65.8158V60.9868H261.233V59.0386H263.244V56.365L265.834 55.7018V59.0386H268.632V60.9868H265.834V65.65C265.834 66.3685 265.972 66.8728 266.249 67.1629C266.525 67.4531 266.905 67.5982 267.389 67.5982C267.651 67.5982 267.872 67.5774 268.052 67.536C268.245 67.4945 268.432 67.4393 268.611 67.3702V69.422C268.377 69.5187 268.114 69.5878 267.824 69.6292C267.548 69.6845 267.278 69.7121 267.016 69.7121ZM275.348 69.7121C273.593 69.7121 272.218 69.2285 271.223 68.2614C270.229 67.2942 269.731 65.9678 269.731 64.2821C269.731 63.1906 269.945 62.2372 270.374 61.422C270.802 60.6068 271.396 59.9712 272.156 59.5153C272.93 59.0593 273.828 58.8313 274.85 58.8313C275.859 58.8313 276.702 59.0455 277.379 59.4738C278.056 59.9022 278.567 60.5032 278.912 61.2769C279.272 62.0507 279.451 62.9557 279.451 63.9919V64.6759H271.824V63.308H277.607L277.254 63.5982C277.254 62.631 277.047 61.8918 276.633 61.3806C276.232 60.8693 275.645 60.6137 274.871 60.6137C274.014 60.6137 273.351 60.9177 272.881 61.5256C272.425 62.1336 272.197 62.9833 272.197 64.0748V64.3443C272.197 65.4773 272.474 66.327 273.026 66.8935C273.593 67.4462 274.387 67.7225 275.41 67.7225C276.004 67.7225 276.557 67.6465 277.068 67.4945C277.593 67.3287 278.09 67.0662 278.56 66.707L279.327 68.4479C278.83 68.8486 278.235 69.1595 277.545 69.3805C276.854 69.6016 276.121 69.7121 275.348 69.7121ZM281.645 69.5049V61.65C281.645 61.2217 281.631 60.7864 281.604 60.3443C281.576 59.9022 281.535 59.4669 281.479 59.0386H283.987L284.194 61.1111H283.946C284.236 60.3927 284.678 59.8331 285.272 59.4324C285.88 59.0317 286.598 58.8313 287.427 58.8313C288.256 58.8313 288.94 59.0317 289.479 59.4324C290.032 59.8193 290.419 60.4272 290.64 61.2562H290.308C290.598 60.5101 291.075 59.9229 291.738 59.4946C292.402 59.0524 293.161 58.8313 294.018 58.8313C295.193 58.8313 296.07 59.1768 296.65 59.8676C297.231 60.5585 297.521 61.6362 297.521 63.1008V69.5049H294.93V63.2044C294.93 62.3754 294.792 61.7812 294.516 61.422C294.239 61.049 293.797 60.8624 293.189 60.8624C292.471 60.8624 291.904 61.118 291.49 61.6293C291.075 62.1267 290.868 62.8037 290.868 63.6603V69.5049H288.277V63.2044C288.277 62.3754 288.139 61.7812 287.863 61.422C287.586 61.049 287.144 60.8624 286.536 60.8624C285.818 60.8624 285.251 61.118 284.837 61.6293C284.436 62.1267 284.236 62.8037 284.236 63.6603V69.5049H281.645Z" fill="#4F4F4F"/>
</g>
<defs>
<clipPath id="clip0_1829_47222">
<rect width="300" height="100" fill="white"/>
</clipPath>
</defs>
</svg>
