<svg width="300" height="100" viewBox="0 0 300 100" fill="none" xmlns="http://www.w3.org/2000/svg">
<path d="M97.965 19.9999C90.4631 19.9999 85 24.9241 85 32.6395C85 40.3397 90.4631 45.2679 97.965 45.2679C101.259 45.2679 104.655 43.9372 106.655 41.0828L102.246 37.7896C101.163 39.4211 99.424 40.3759 97.2862 40.3759C93.4498 40.3759 90.4979 37.1163 90.4979 32.6395C90.4979 28.1536 93.453 24.8919 97.4601 24.8919C99.4271 24.8919 100.958 25.6046 102.01 26.8611L106.083 23.5286C104.043 20.9213 100.649 19.9999 97.965 19.9999ZM212.238 19.9999C204.739 19.9999 199.273 24.9271 199.273 32.6395C199.273 40.3427 204.739 45.2679 212.238 45.2679C215.772 45.2679 219.199 44.582 222.325 42.9566V30.3955H212.917V35.2819H217.231V39.1865C216.249 39.7263 214.55 40.3759 212.238 40.3759C207.725 40.3759 204.771 37.1193 204.771 32.6395C204.771 28.1536 207.725 24.8863 212.238 24.8863C214.925 24.8863 216.657 25.6692 218.084 27.1696L221.815 23.091C219.402 20.8527 216.044 19.9999 212.238 19.9999ZM117.791 27.7475C112.695 27.7475 108.613 31.1434 108.613 36.4039C108.613 41.6675 112.695 45.066 117.791 45.066C122.881 45.066 126.953 41.6675 126.953 36.4039C126.953 31.1434 122.881 27.7475 117.791 27.7475ZM139.407 27.7475C136.928 27.7475 135.268 29.0999 134.588 30.3898H134.521V28.1514H129.629V44.6508H134.728V36.4376C134.728 34.2937 135.133 32.23 137.78 32.23C140.122 32.23 140.058 34.6981 140.058 35.9271V44.6508H145.146V35.9271C145.146 33.8899 145.892 32.23 148.238 32.23C149.896 32.23 150.482 33.5154 150.482 35.0463V44.6508H155.57V34.906C155.57 30.8958 154.215 27.7475 149.735 27.7475C147.287 27.7475 145.69 28.5972 144.501 30.6984C143.62 28.6979 141.713 27.7475 139.407 27.7475ZM168.984 27.7475C166.672 27.7475 164.71 29.1362 163.929 30.3225H163.862V28.1514H159.177V52.3872H164.266V42.8836H164.333C165.489 44.4786 167.46 45.066 169.562 45.066C174.249 45.066 177.096 40.8441 177.096 36.2637C177.096 31.2715 173.872 27.7475 168.984 27.7475ZM236.418 27.7475C234.179 27.7475 232.752 28.7989 231.66 30.7994H231.599V28.1514H226.505V44.6508H231.599V37.7616C231.599 34.468 232.068 32.23 235.941 32.23C236.691 32.23 237.401 32.3592 238.112 32.5666V27.9158C237.633 27.7785 236.994 27.7475 236.418 27.7475ZM248.726 27.7475C243.634 27.7475 239.559 31.1434 239.559 36.4039C239.559 41.6675 243.634 45.066 248.726 45.066C253.819 45.066 257.893 41.6675 257.893 36.4039C257.893 31.1434 253.819 27.7475 248.726 27.7475ZM290.354 27.7475C288.042 27.7475 286.077 29.1362 285.299 30.3225H285.226V28.1514H280.547V52.3872H285.641V42.8836H285.703C286.859 44.4786 288.83 45.066 290.931 45.066C295.619 45.066 298.477 40.8441 298.477 36.2637C298.477 31.2715 295.242 27.7475 290.354 27.7475ZM179.94 28.1514V37.2454C179.94 41.6643 180.887 45.066 186.05 45.066C188.526 45.066 190.189 43.6993 190.869 42.4124H190.936V44.6508H195.823V28.1514H190.74V36.3646C190.74 38.5024 190.327 40.5779 187.677 40.5779C185.063 40.5779 185.034 38.1299 185.034 36.23V28.1514H179.94ZM260.738 28.1514V37.2454C260.738 41.6643 261.684 45.066 266.847 45.066C269.317 45.066 270.987 43.6993 271.661 42.4124H271.728V44.6508H276.62V28.1514H271.526V36.3646C271.526 38.5024 271.118 40.5779 268.474 40.5779C265.861 40.5779 265.82 38.1299 265.82 36.23V28.1514H260.738ZM117.791 32.23C120.338 32.23 121.864 33.9246 121.864 36.4039C121.864 38.8802 120.338 40.5779 117.791 40.5779C115.245 40.5779 113.713 38.8802 113.713 36.4039C113.713 33.9246 115.245 32.23 117.791 32.23ZM167.929 32.23C170.479 32.23 172.013 33.9246 172.013 36.4039C172.013 38.8802 170.479 40.5779 167.929 40.5779C165.386 40.5779 163.862 38.8802 163.862 36.4039C163.862 33.9246 165.386 32.23 167.929 32.23ZM248.726 32.23C251.27 32.23 252.799 33.9246 252.799 36.4039C252.799 38.8802 251.27 40.5779 248.726 40.5779C246.177 40.5779 244.653 38.8802 244.653 36.4039C244.653 33.9246 246.177 32.23 248.726 32.23ZM289.304 32.23C291.848 32.23 293.377 33.9246 293.377 36.4039C293.377 38.8802 291.848 40.5779 289.304 40.5779C286.755 40.5779 285.226 38.8802 285.226 36.4039C285.226 33.9246 286.755 32.23 289.304 32.23Z" fill="#4F4F4F"/>
<path d="M204.877 53.8909V79.5573H209.652V53.8909H204.877ZM149.292 53.9246V64.8587H149.23C148.072 63.2638 146.1 62.6876 143.996 62.6876C139.315 62.6876 136.456 66.8977 136.456 71.4843C136.456 76.4704 139.689 80.0005 144.568 80.0005C146.883 80.0005 148.854 78.6061 149.629 77.4198H149.702V79.5966H154.386V53.9246H149.292ZM161.724 54.9512C160.093 54.9512 158.768 56.2762 158.768 57.9078C158.768 59.5332 160.093 60.8531 161.724 60.8531C163.356 60.8531 164.675 59.5332 164.675 57.9078C164.675 56.2762 163.356 54.9512 161.724 54.9512ZM86.2847 55.5571V79.5966H91.5863V61.1616H91.648L97.7294 79.5966H101.769L108.08 61.1616H108.153V79.5966H113.449V55.5571H105.471L99.9005 71.2431H99.8332L94.3016 55.5571H86.2847ZM125.662 62.6876C120.569 62.6876 116.501 66.081 116.501 71.3384C116.501 76.6051 120.569 80.0005 125.662 80.0005C128.309 80.0005 130.993 78.8203 132.624 76.7466L129.056 74.1267C128.209 75.2825 127.089 76.1295 125.427 76.1295C123.454 76.1295 121.998 74.8799 121.589 72.9373H133.404V71.3384C133.404 66.081 130.417 62.6876 125.662 62.6876ZM176.681 62.6876C171.588 62.6876 167.514 66.0835 167.514 71.344C167.514 76.6107 171.588 80.0005 176.681 80.0005C178.617 80.0005 180.957 79.4272 182.555 77.7957L179.194 74.2613C178.618 74.9475 177.8 75.5236 176.681 75.5236C174.138 75.5236 172.608 73.8264 172.608 71.344C172.608 68.8708 174.138 67.1757 176.681 67.1757C177.73 67.1757 178.682 67.7137 179.194 68.4212L182.555 64.8924C180.957 63.267 178.617 62.6876 176.681 62.6876ZM193.062 62.6876C190.376 62.6876 187.661 63.5668 185.797 65.3356L188.507 68.1182C189.593 66.8984 190.991 66.1491 192.653 66.1491C194.422 66.1491 195.907 67.312 195.907 69.1112C191.668 69.1112 184.737 69.2124 184.737 74.9121C184.737 78.2361 187.524 80.0005 190.622 80.0005C192.69 80.0005 194.723 79.2835 195.845 77.5208H195.907V79.5966H200.597V71.2094C200.597 65.7049 199 62.6876 193.062 62.6876ZM159.177 63.0971V79.5966H164.266V63.0971H159.177ZM125.191 66.3566C127.024 66.3566 128.347 67.7768 128.31 69.4815H121.589C121.727 67.8804 122.947 66.3566 125.191 66.3566ZM145.629 67.1701C148.175 67.1701 149.702 68.8739 149.702 71.344C149.702 73.8294 148.175 75.5236 145.629 75.5236C143.082 75.5236 141.55 73.8294 141.55 71.344C141.55 68.8739 143.082 67.1701 145.629 67.1701ZM194.656 72.3595H195.907V73.4478C195.907 75.485 194.042 76.5334 192.041 76.5334C190.913 76.5334 189.629 75.9667 189.629 74.7438C189.629 72.4993 193.088 72.3595 194.656 72.3595Z" fill="#4F4F4F"/>
<path d="M43.3916 79.0581C61.2283 79.0581 75.6878 64.5986 75.6878 46.762C75.6878 28.9253 61.2283 14.4658 43.3916 14.4658C25.5549 14.4658 11.0955 28.9253 11.0955 46.762C11.0955 64.5986 25.5549 79.0581 43.3916 79.0581Z" fill="#4F4F4F"/>
<path d="M50.6367 38.9775H55.1073L59.5008 49.9228L63.8943 38.9775H68.2878V54.6246H65.513V41.5982H65.4359C63.8173 45.9147 62.1215 50.2311 60.5028 54.5475C59.8091 54.5475 59.1154 54.5475 58.4988 54.5475L53.5657 41.5982H53.4886V54.6246H50.7138V38.9775H50.6367Z" fill="white"/>
<path d="M44.1621 51.696C44.085 51.696 44.085 51.696 44.085 51.696C42.7747 51.696 41.4643 51.696 40.154 51.696C38.6124 51.6189 37.6104 50.8481 37.225 49.3836C36.7625 47.6879 36.8396 45.9922 37.225 44.2964C37.6874 42.5236 38.6895 41.6757 40.5394 41.6757C42.7747 41.6757 45.087 41.6757 47.3223 41.6757C47.7077 41.6757 47.7077 41.6757 47.7077 41.2903C47.7077 40.5966 47.7077 39.98 47.7077 39.2863C47.7077 38.9009 47.7077 38.9009 47.2453 38.9009C45.01 38.9009 42.8517 38.9009 40.6164 38.978C39.8457 38.978 39.0749 39.055 38.3812 39.2092C36.0688 39.6717 34.4501 40.982 33.7564 43.2173C33.0627 45.2984 33.0627 47.4567 33.4481 49.6149C34.0647 52.5439 36.3 54.4709 39.229 54.5479C41.9268 54.625 44.6246 54.5479 47.3223 54.625C47.5536 54.625 47.6306 54.5479 47.6306 54.3167C47.6306 51.3877 47.6306 48.4587 47.6306 45.6068C47.6306 45.3755 47.5536 45.2984 47.3223 45.2984C44.9329 45.2984 42.4663 45.2984 40.0769 45.2984C39.8457 45.2984 39.7686 45.3755 39.7686 45.6068C39.7686 46.3776 39.7686 47.0713 39.7686 47.8421C39.7686 48.0733 39.8457 48.1504 40.0769 48.1504C41.3102 48.1504 42.5434 48.1504 43.7767 48.1504C43.9308 48.1504 44.0079 48.1504 44.1621 48.1504C44.1621 49.3836 44.1621 50.5398 44.1621 51.696Z" fill="white"/>
<path d="M27.8216 54.6246C28.9007 54.6246 29.9798 54.6246 31.0589 54.6246C31.3672 54.6246 31.4443 54.5475 31.4443 54.2392C31.4443 53.6996 31.4443 53.083 31.4443 52.5434C31.4443 51.8497 31.4443 51.8497 30.7506 51.8497C28.9007 51.8497 27.0508 51.8497 25.2009 51.7726C23.6593 51.6956 22.7343 50.9248 22.426 49.4603C22.0406 47.6874 22.1177 45.9917 22.5031 44.2189C22.7343 43.2939 23.1968 42.5231 24.0447 42.0607C24.6613 41.7524 25.278 41.6753 25.8946 41.6753C27.5903 41.6753 29.2861 41.6753 30.9818 41.6753C31.213 41.6753 31.3672 41.5982 31.2901 41.367C31.2901 40.6732 31.2901 39.9795 31.2901 39.2858C31.2901 38.9775 31.213 38.9004 30.9047 38.9775C29.209 38.9775 27.4362 38.9775 25.7404 38.9775C24.7384 38.9775 23.8134 39.0546 22.8114 39.3629C20.499 40.0566 19.2658 41.6753 18.7262 43.9106C18.3408 45.5292 18.3408 47.1479 18.495 48.7666C18.6492 49.9227 18.9575 51.0018 19.6512 52.0039C20.8844 53.6996 22.5802 54.4704 24.5842 54.5475C25.8175 54.6246 26.8195 54.6246 27.8216 54.6246Z" fill="white"/>
<path d="M42.929 82.9128C23.428 82.9128 7.54969 67.1116 7.54969 47.5335C7.54969 27.9554 23.428 12.1542 42.929 12.1542C43.0061 12.1542 43.0832 12.1542 43.1602 12.1542C42.0811 12.0771 41.002 12 39.9229 12C19.0345 12 2 29.0345 2 50C2 70.9655 19.0345 88 40 88C59.7323 88 75.9959 72.8925 77.7688 53.6227C74.9168 70.1947 60.3489 82.9128 42.929 82.9128Z" fill="#4F4F4F"/>
</svg>
