<svg width="300" height="100" viewBox="0 0 300 100" fill="none" xmlns="http://www.w3.org/2000/svg">
<g clip-path="url(#clip0_1896_5917)">
<path d="M24.2851 68.3511C24.2851 61.3589 21.9571 54.6538 17.8227 49.2489H17.8232C17.8149 49.2387 17.8309 49.2586 17.8227 49.2489C17.6888 49.0743 17.5291 48.8731 17.3922 48.702C13.9602 44.1314 17.6589 42.5174 18.3274 42.0632C18.3345 42.0584 18.3392 42.0544 18.3459 42.0501C21.8958 39.9037 24.2785 35.9792 24.2785 31.5005H19.5792C19.5792 35.6516 16.2411 39.0275 12.1392 39.0275C8.03695 39.0275 4.69886 35.6516 4.69886 31.5005H0C0 35.3462 1.75714 38.7837 4.50114 41.0378L4.5 41.0365C4.5 41.0365 4.50305 41.0384 4.50419 41.0396C4.72076 41.2178 4.94457 41.387 5.17371 41.5496C6.04171 42.306 7.43981 43.888 7.43981 46.2384V68.3511H12.1392V49.871C16.865 54.7706 19.5857 61.3919 19.5857 68.3511H24.2851Z" fill="#4F4F4F"/>
<path d="M12.1391 36.2545C14.7344 36.2545 16.838 34.1262 16.838 31.5H7.4397C7.4397 34.1262 9.54389 36.2545 12.1391 36.2545Z" fill="#4F4F4F"/>
<path d="M50.7586 43.7856H48.5723V56.0677H50.7586V43.7856Z" fill="#4F4F4F"/>
<path d="M53.8333 56.0682V43.7861H56.3131L62.5517 52.8849V43.7861H64.738V56.0682H62.2933L56.0195 46.8972V56.0682H53.8333Z" fill="#4F4F4F"/>
<path d="M67.3767 47.2384C67.3767 46.049 67.7887 45.1518 68.6118 44.5484C69.4356 43.9437 70.466 43.6421 71.7047 43.6421C72.7952 43.6421 73.882 43.9275 74.966 44.4985V46.6634C74.0302 46.0402 73.0291 45.7282 71.963 45.7282C71.2927 45.7282 70.726 45.8449 70.2607 46.0787C69.7952 46.3123 69.563 46.6815 69.563 47.1843C69.563 47.5926 69.775 47.9112 70.1988 48.1424C70.622 48.3731 71.1344 48.5675 71.7363 48.7265C72.3375 48.8849 72.9417 49.0849 73.5487 49.3245C74.1565 49.5642 74.6714 49.9791 75.0952 50.5694C75.519 51.16 75.7302 51.9226 75.7302 52.8578C75.7302 53.8454 75.3249 54.6511 74.5131 55.2749C73.7017 55.8995 72.7125 56.2115 71.5445 56.2115C70.0047 56.2115 68.6689 55.8683 67.5375 55.1822V52.948C68.5798 53.7327 69.7464 54.1254 71.0386 54.1254C72.7095 54.1254 73.5439 53.6556 73.5439 52.7138C73.5439 52.2887 73.394 51.9351 73.0916 51.6534C72.7887 51.3714 72.407 51.1637 71.9451 51.0288C71.482 50.8933 70.9874 50.7349 70.4613 50.5513C69.9333 50.3688 69.4386 50.1695 68.9767 49.9539C68.5148 49.7382 68.1327 49.401 67.8308 48.9421C67.5279 48.4833 67.3767 47.916 67.3767 47.2384Z" fill="#4F4F4F"/>
<path d="M76.9475 45.998V43.7861H86.9012V45.998H83.0094V56.0682H80.8231V45.998H76.9475Z" fill="#4F4F4F"/>
<path d="M91.0425 43.7856H88.8562V56.0677H91.0425V43.7856Z" fill="#4F4F4F"/>
<path d="M93.0864 45.998V43.7861H103.04V45.998H99.1478V56.0682H96.9615V45.998H93.0864Z" fill="#4F4F4F"/>
<path d="M104.959 50.8708V43.7856H107.146V51.0598C107.146 52.1384 107.377 52.9297 107.839 53.4332C108.302 53.9373 109.036 54.1884 110.043 54.1884C111.05 54.1884 111.786 53.9373 112.251 53.4332C112.717 52.9297 112.949 52.1384 112.949 51.0598V43.7856H115.136V50.8708C115.136 52.5666 114.69 53.8812 113.798 54.8128C112.906 55.7457 111.653 56.2113 110.039 56.2113C108.424 56.2113 107.174 55.7457 106.289 54.8128C105.403 53.8812 104.959 52.5666 104.959 50.8708Z" fill="#4F4F4F"/>
<path d="M117.099 45.998V43.7861H127.053V45.998H123.16V56.0682H120.974V45.998H117.099Z" fill="#4F4F4F"/>
<path d="M127.995 49.9267C127.995 48.9209 128.11 48.0382 128.341 47.2781C128.572 46.5183 128.87 45.9124 129.235 45.4607C129.598 45.0084 130.039 44.6405 130.554 44.3563C131.069 44.0714 131.573 43.8816 132.065 43.7858C132.556 43.6903 133.086 43.6421 133.656 43.6421C134.225 43.6421 134.755 43.6903 135.246 43.7858C135.738 43.8816 136.242 44.0714 136.757 44.3563C137.272 44.6405 137.716 45.0084 138.085 45.4607C138.456 45.9124 138.757 46.5183 138.988 47.2781C139.219 48.0382 139.334 48.9209 139.334 49.9267C139.334 50.9234 139.219 51.8056 138.988 52.5741C138.757 53.3424 138.456 53.9501 138.085 54.3975C137.716 54.845 137.272 55.2111 136.757 55.4954C136.242 55.7808 135.738 55.9718 135.246 56.0675C134.755 56.1639 134.225 56.2115 133.656 56.2115C133.086 56.2115 132.556 56.1639 132.065 56.0675C131.573 55.9718 131.069 55.7808 130.554 55.4954C130.039 55.2111 129.598 54.845 129.235 54.3975C128.87 53.9501 128.572 53.3424 128.341 52.5741C128.11 51.8056 127.995 50.9234 127.995 49.9267ZM130.181 49.9086C130.181 50.8307 130.271 51.593 130.451 52.197C130.632 52.8011 130.899 53.2449 131.252 53.5298C131.604 53.814 131.965 54.0067 132.335 54.1085C132.706 54.2102 133.146 54.2603 133.656 54.2603C134.071 54.2603 134.428 54.2331 134.731 54.1796C135.034 54.1266 135.344 54.011 135.665 53.8344C135.984 53.6581 136.244 53.4124 136.447 53.0979C136.648 52.7848 136.815 52.3585 136.948 51.8201C137.082 51.2816 137.148 50.6451 137.148 49.9086C137.148 48.9994 137.058 48.243 136.877 47.6389C136.697 47.0349 136.427 46.5905 136.068 46.3069C135.71 46.0226 135.348 45.8322 134.985 45.737C134.62 45.6407 134.176 45.5925 133.656 45.5925C133.253 45.5925 132.901 45.6197 132.598 45.6738C132.297 45.7282 131.983 45.8444 131.66 46.0244C131.337 46.2032 131.078 46.4452 130.879 46.7507C130.679 47.0559 130.514 47.4745 130.381 48.0069C130.247 48.5392 130.181 49.1734 130.181 49.9086Z" fill="#4F4F4F"/>
<path d="M148.283 56.0682V43.7861H150.71L154.22 48.9199L157.73 43.7861H160.157V56.0682H157.97V46.9862L154.22 52.4175L150.469 46.9862V56.0682H148.283Z" fill="#4F4F4F"/>
<path d="M163.347 56.0679V43.7858H171.424V45.7725H165.533V48.8841H170.643V50.9696H165.533V54.0801H171.424V56.0679H163.347ZM166.697 42.7337L167.826 40.585H169.612L167.914 42.7337H166.697Z" fill="#4F4F4F"/>
<path d="M173.922 56.0682V43.7861H178.111C179.992 43.7861 181.417 44.3076 182.39 45.3507C183.362 46.3931 183.849 47.922 183.849 49.9358C183.849 51.9377 183.364 53.4601 182.394 54.5036C181.425 55.5462 179.997 56.0682 178.111 56.0682H173.922ZM176.108 54.0804H178.108C179.37 54.0804 180.278 53.7576 180.832 53.1101C181.386 52.4628 181.663 51.4047 181.663 49.9358C181.663 48.4551 181.386 47.3909 180.832 46.7436C180.278 46.0967 179.37 45.7728 178.108 45.7728H176.108V54.0804Z" fill="#4F4F4F"/>
<path d="M188.719 43.7856H186.532V56.0677H188.719V43.7856Z" fill="#4F4F4F"/>
<path d="M191.686 52.5705C191.454 51.8087 191.339 50.9246 191.339 49.9177C191.339 48.9108 191.454 48.0268 191.686 47.2656C191.917 46.5044 192.214 45.8968 192.579 45.4445C192.943 44.9923 193.384 44.6238 193.899 44.3388C194.414 44.054 194.918 43.8638 195.41 43.768C195.901 43.6722 196.431 43.624 197.001 43.624C198.238 43.624 199.465 43.8666 200.679 44.3521V46.42C199.524 45.8804 198.363 45.6107 197.195 45.6107C196.651 45.6107 196.184 45.6602 195.796 45.7594C195.408 45.8583 195.029 46.0485 194.659 46.3298C194.289 46.6116 194.006 47.0531 193.814 47.6522C193.622 48.2508 193.526 49.0066 193.526 49.9177C193.526 50.8282 193.622 51.584 193.814 52.1834C194.006 52.7831 194.289 53.2234 194.659 53.5051C195.029 53.7871 195.408 53.9773 195.796 54.0754C196.184 54.1748 196.651 54.2241 197.195 54.2241C198.363 54.2241 199.524 53.9549 200.679 53.4148V55.4739C199.465 55.9653 198.238 56.211 197.001 56.211C196.431 56.211 195.901 56.1634 195.41 56.0682C194.918 55.9718 194.414 55.7816 193.899 55.496C193.384 55.2118 192.943 54.8439 192.579 54.391C192.214 53.9382 191.917 53.3311 191.686 52.5705Z" fill="#4F4F4F"/>
<path d="M202.51 49.9267C202.51 48.9209 202.625 48.0382 202.857 47.2781C203.088 46.5183 203.385 45.9124 203.75 45.4607C204.114 45.0084 204.554 44.6405 205.069 44.3563C205.585 44.0714 206.088 43.8816 206.58 43.7858C207.072 43.6903 207.602 43.6421 208.171 43.6421C208.74 43.6421 209.27 43.6903 209.762 43.7858C210.253 43.8816 210.757 44.0714 211.272 44.3563C211.787 44.6405 212.231 45.0084 212.601 45.4607C212.971 45.9124 213.272 46.5183 213.503 47.2781C213.734 48.0382 213.849 48.9209 213.849 49.9267C213.849 50.9234 213.734 51.8056 213.503 52.5741C213.272 53.3424 212.971 53.9501 212.601 54.3975C212.231 54.845 211.787 55.2111 211.272 55.4954C210.757 55.7808 210.253 55.9718 209.762 56.0675C209.27 56.1639 208.74 56.2115 208.171 56.2115C207.602 56.2115 207.072 56.1639 206.58 56.0675C206.088 55.9718 205.585 55.7808 205.069 55.4954C204.554 55.2111 204.114 54.845 203.75 54.3975C203.385 53.9501 203.088 53.3424 202.857 52.5741C202.625 51.8056 202.51 50.9234 202.51 49.9267ZM204.697 49.9086C204.697 50.8307 204.787 51.593 204.967 52.197C205.148 52.8011 205.415 53.2449 205.767 53.5298C206.119 53.814 206.481 54.0067 206.851 54.1085C207.221 54.2102 207.662 54.2603 208.171 54.2603C208.586 54.2603 208.944 54.2331 209.246 54.1796C209.549 54.1266 209.859 54.011 210.18 53.8344C210.499 53.6581 210.76 53.4124 210.962 53.0979C211.163 52.7848 211.33 52.3585 211.464 51.8201C211.597 51.2816 211.664 50.6451 211.664 49.9086C211.664 48.9994 211.574 48.243 211.393 47.6389C211.212 47.0349 210.943 46.5905 210.584 46.3069C210.225 46.0226 209.864 45.8322 209.5 45.737C209.135 45.6407 208.692 45.5925 208.171 45.5925C207.768 45.5925 207.416 45.6197 207.114 45.6738C206.812 45.7282 206.499 45.8444 206.175 46.0244C205.853 46.2032 205.593 46.4452 205.394 46.7507C205.195 47.0559 205.03 47.4745 204.896 48.0069C204.762 48.5392 204.697 49.1734 204.697 49.9086Z" fill="#4F4F4F"/>
<path d="M221.6 56.0682L226.426 43.7861H228.824L233.65 56.0682H231.304L230.193 53.1011H225.057L223.945 56.0682H221.6ZM225.804 51.1144H229.43L227.625 46.2942L225.804 51.1144Z" fill="#4F4F4F"/>
<path d="M235.518 56.0682V43.7861H240.179C241.603 43.7861 242.709 44.1276 243.497 44.8104C244.286 45.4928 244.681 46.469 244.681 47.7384C244.681 49.6088 243.791 50.8188 242.014 51.3673L245.204 56.0682H242.565L239.668 51.7348H237.704V56.0682H235.518ZM237.704 49.7113H240.121C240.862 49.7113 241.442 49.5776 241.863 49.309C242.284 49.0417 242.494 48.5358 242.494 47.7914C242.494 47.0362 242.284 46.5268 241.863 46.2647C241.442 46.0029 240.862 45.8722 240.121 45.8722H237.704V49.7113Z" fill="#4F4F4F"/>
<path d="M247.4 56.0682V43.7861H252.061C253.484 43.7861 254.59 44.1276 255.379 44.8104C256.168 45.4928 256.562 46.469 256.562 47.7384C256.562 49.6088 255.673 50.8188 253.896 51.3673L257.086 56.0682H254.447L251.55 51.7348H249.586V56.0682H247.4ZM249.586 49.7113H252.003C252.744 49.7113 253.324 49.5776 253.745 49.309C254.166 49.0417 254.376 48.5358 254.376 47.7914C254.376 47.0362 254.166 46.5268 253.745 46.2647C253.324 46.0029 252.744 45.8722 252.003 45.8722H249.586V49.7113Z" fill="#4F4F4F"/>
<path d="M261.706 43.7856H259.52V56.0677H261.706V43.7856Z" fill="#4F4F4F"/>
<path d="M263.724 56.0682L268.55 43.7861H270.95L275.775 56.0682H273.428L272.318 53.1011H267.181L266.07 56.0682H263.724ZM267.927 51.1144H271.553L269.75 46.2942L267.927 51.1144Z" fill="#4F4F4F"/>
<path d="M277.436 56.0682V54.0442L283.515 45.998H277.507V43.7861H286.225V45.7546L280.111 53.8563H286.225V56.0682H277.436Z" fill="#4F4F4F"/>
<path d="M287.95 56.0682L292.775 43.7861H295.175L300 56.0682H297.654L296.543 53.1011H291.408L290.296 56.0682H287.95ZM292.154 51.1144H295.78L293.975 46.2942L292.154 51.1144Z" fill="#4F4F4F"/>
</g>
<defs>
<clipPath id="clip0_1896_5917">
<rect width="300" height="37" fill="white" transform="translate(0 31.5)"/>
</clipPath>
</defs>
</svg>
