<svg width="300" height="100" viewBox="0 0 300 100" fill="none" xmlns="http://www.w3.org/2000/svg">
<g clip-path="url(#clip0_1835_47506)">
<path d="M47.6092 43.5698C33.1147 43.5698 21.37 53.242 18.7662 66.8626C18.6557 67.4306 18.5847 68.0105 18.5847 68.6101C18.5847 73.2804 22.3681 77.0672 27.0392 77.0672C31.7063 77.0672 35.4935 73.2804 35.4935 68.6101C35.4935 68.3615 35.4818 68.117 35.4581 67.8763L34.2035 50.3742C34.1167 49.1554 35.3674 48.4729 36.2471 49.116L43.3641 55.0052C44.5043 55.9914 45.9877 56.5869 47.6131 56.5869C51.2031 56.5869 54.1147 53.6719 54.1147 50.0784C54.1147 46.485 51.2031 43.5698 47.6092 43.5698Z" fill="#4F4F4F"/>
<path d="M35.3447 33.1407C35.4514 32.5727 35.5263 31.9928 35.5263 31.3933C35.5263 26.7189 31.7429 22.9321 27.0758 22.9321C22.4047 22.9321 18.6213 26.7189 18.6213 31.3933C18.6213 31.6418 19.9075 49.633 19.9075 49.633C19.9982 50.8479 18.7436 51.5305 17.8678 50.8914L10.7508 45.0021C9.61456 44.0159 8.12724 43.4203 6.50185 43.4203C2.91175 43.4203 0.000244141 46.3314 0.000244141 49.9249C0.000244141 53.5184 2.91175 56.4335 6.50185 56.4335C21.0003 56.4335 32.7411 46.7614 35.3447 33.1407Z" fill="#4F4F4F"/>
<path d="M87.8194 30.3667H73.8811V69.4497H87.8194C100.057 69.4497 107.186 61.9826 107.186 49.9082C107.186 37.8338 100.057 30.3667 87.8194 30.3667ZM87.7641 64.2901H79.7514V35.5302H87.7641C96.3764 35.5302 101.039 40.8001 101.039 49.912C101.039 59.0241 96.3804 64.2901 87.7641 64.2901Z" fill="#4F4F4F"/>
<path d="M123.263 40.4688C114.978 40.4688 109.218 46.2319 109.218 55.2926C109.218 64.3494 114.978 70.1123 123.263 70.1123C131.492 70.1123 137.256 64.3494 137.256 55.2926C137.252 46.2319 131.488 40.4688 123.263 40.4688ZM123.263 65.3906C118.217 65.3906 114.923 61.7656 114.923 55.2885C114.923 48.8076 118.213 45.1865 123.263 45.1865C128.257 45.1865 131.547 48.8076 131.547 55.2885C131.547 61.7656 128.253 65.3906 123.263 65.3906Z" fill="#4F4F4F"/>
<path d="M165.069 41.1275H158.208L145.757 53.4227V30.3667H140.324V69.4497H145.757V59.7342L150.476 55.123L159.47 69.4497H165.783L154.369 51.553L165.069 41.1275Z" fill="#4F4F4F"/>
<path d="M176.151 33.0034H170.663V41.1293H166.107V45.634H170.663V63.14C170.663 67.8617 173.409 69.6211 178.51 69.6211C179.5 69.6211 180.653 69.5618 181.856 69.4553V65.0611H179.386C176.972 65.0611 176.147 64.292 176.147 62.6469V45.6299H181.852V41.1293H176.151V33.0034Z" fill="#4F4F4F"/>
<path d="M197.494 40.4688C189.209 40.4688 183.449 46.2319 183.449 55.2926C183.449 64.3494 189.209 70.1123 197.494 70.1123C205.719 70.1123 211.487 64.3494 211.487 55.2926C211.483 46.2319 205.719 40.4688 197.494 40.4688ZM197.494 65.3906C192.444 65.3906 189.154 61.7656 189.154 55.2885C189.154 48.8076 192.444 45.1865 197.494 45.1865C202.488 45.1865 205.778 48.8076 205.778 55.2885C205.778 61.7656 202.488 65.3906 197.494 65.3906Z" fill="#4F4F4F"/>
<path d="M230.522 45.9569V40.7423C229.92 40.687 229.421 40.687 228.929 40.687C224.431 40.687 221.634 43.1011 220.096 46.1779V41.1288H214.829V69.455H220.316V54.0828C220.316 48.6472 223.717 45.9569 229.15 45.9569H230.522Z" fill="#4F4F4F"/>
<path d="M230.633 62.4258C228.384 62.4258 226.735 64.0153 226.735 66.1061C226.735 68.244 228.384 69.8928 230.633 69.8928C232.609 69.8928 234.309 68.244 234.309 66.1061C234.309 64.0153 232.609 62.4258 230.633 62.4258Z" fill="#4F4F4F"/>
<path d="M257.08 47.2734L253.676 46.5595C246.986 45.0763 245.17 43.4315 245.17 39.972C245.17 36.6192 247.807 34.4812 253.071 34.4812C260.154 34.4812 262.403 37.2227 262.73 41.8339H268.549C268.383 35.0255 264.273 29.4834 253.022 29.4834C244.353 29.4834 239.192 33.7081 239.192 40.0786C239.192 47.159 244.295 50.1807 251.375 51.6085L254.722 52.3226C261.25 53.7466 263.556 55.3441 263.556 58.8035C263.556 63.0834 260.319 65.3318 254.556 65.3318C248.63 65.3318 244.022 63.3004 243.911 56.5472H238.042C238.096 65.9905 244.626 70.3256 254.45 70.3256C263.993 70.3256 269.646 65.8801 269.646 58.6339C269.641 52.709 266.186 49.1984 257.08 47.2734Z" fill="#4F4F4F"/>
<path d="M299.436 55.5055C299.436 47.0011 294.548 40.4688 285.99 40.4688C277.926 40.4688 272.551 46.3974 272.551 55.2926C272.551 64.4044 278.089 70.1123 286.101 70.1123C292.904 70.1123 297.35 66.2703 298.773 60.7794H293.235C292.248 63.6393 289.888 65.5011 286.211 65.5011C281.655 65.5011 278.587 62.8661 278.093 57.1032H299.436V55.5055ZM278.145 52.764C278.863 47.5494 281.881 45.08 285.99 45.08C290.599 45.08 293.29 48.3736 293.784 52.764H278.145Z" fill="#4F4F4F"/>
</g>
<defs>
<clipPath id="clip0_1835_47506">
<rect width="300" height="54.1353" fill="white" transform="translate(0.000244141 22.9321)"/>
</clipPath>
</defs>
</svg>
